<svg xmlns="http://www.w3.org/2000/svg" width="44" height="45" viewBox="0 0 44 45"><g><g><g><path fill="#0093d6" d="M28.84 21.879c-5.54 0-10.04-4.49-10.04-10.03v-.009c.01-5.53 4.49-10.02 10.03-10.03 5.54 0 10.039 4.49 10.039 10.03 0 5.54-4.49 10.039-10.03 10.039zM28.83 0c-6.526 0-11.84 5.314-11.84 11.84 0 6.527 5.314 11.85 11.84 11.85 6.527 0 11.84-5.314 11.84-11.84C40.67 5.322 35.357 0 28.83 0z"/></g><g><path fill="#0093d6" d="M31.484 15.868h-.01a4.306 4.306 0 0 1-4.607-.977c-.018-.018-.036-.055-.054-.055h3.82a.908.908 0 0 0 .905-.905.908.908 0 0 0-.905-.905h-4.861c-.1-.326-.154-.66-.163-.996h5.504a.908.908 0 0 0 .905-.905.908.908 0 0 0-.905-.905h-5.178a4.064 4.064 0 0 1 .941-1.421 4.306 4.306 0 0 1 4.608-.978.897.897 0 0 0 1.167-.525.914.914 0 0 0-.516-1.168A6.12 6.12 0 0 0 25.6 7.522a5.86 5.86 0 0 0-1.575 2.707h-.942a.908.908 0 0 0-.905.905c0 .498.407.905.905.905h.724c.019.335.055.67.118.996h-.86a.908.908 0 0 0-.905.905c0 .498.407.905.905.905h1.503c.28.48.624.933 1.014 1.331a6.114 6.114 0 0 0 6.544 1.385.91.91 0 0 0 .525-1.168.91.91 0 0 0-1.167-.525z"/></g><g><path fill="#0093d6" d="M40.925 30.551l-6.734 5.585a12.304 12.304 0 0 1-8.39 2.834l-9.73-.453c-1.368-.063-2.2.018-3.459.199-.009 0-.018 0-.027.01l-3.25.597v-10.32l3.875-1.874c2.28-1.104 4.209-1.539 6.444-1.457l6.445.262h.19c.742.01 1.376.562 1.466 1.304a1.514 1.514 0 0 1-1.203 1.656l-4.789.906a2.325 2.325 0 0 0-1.565 3.458l.515.878a2.33 2.33 0 0 0 2.082 1.14l4.635-.154a9.085 9.085 0 0 0 5.313-1.973c1.71-1.385 4.354-3.512 6.164-4.988a1.572 1.572 0 0 1 2.136.19c.018.037.045.073.072.109a1.498 1.498 0 0 1-.19 2.091zm-33.41 11.55a.988.988 0 0 1-.985.987H2.806a.988.988 0 0 1-.985-.986V28.324c0-.543.443-.987.985-.987H6.53c.542 0 .985.444.985.987zm35.031-14.727a.513.513 0 0 0-.072-.118 3.36 3.36 0 0 0-4.726-.489c-1.81 1.476-4.444 3.603-6.155 4.988a7.154 7.154 0 0 1-4.236 1.575l-4.635.154a.523.523 0 0 1-.462-.245l-.516-.887a.485.485 0 0 1-.027-.47.504.504 0 0 1 .371-.29l4.789-.905c1.683-.317 2.86-1.91 2.67-3.64a3.274 3.274 0 0 0-3.259-2.914h-.163l-6.4-.262c-2.552-.091-4.743.398-7.305 1.638l-3.349 1.62a2.824 2.824 0 0 0-2.543-1.602H2.825A2.8 2.8 0 0 0 .01 28.315v13.787a2.814 2.814 0 0 0 2.815 2.797h3.703a2.807 2.807 0 0 0 2.806-2.797v-.933l3.557-.652c1.15-.172 1.874-.235 3.096-.18l9.731.452a14.047 14.047 0 0 0 9.623-3.25l6.743-5.594.01-.009a3.313 3.313 0 0 0 .452-4.562z"/></g></g></g></svg>