<svg xmlns="http://www.w3.org/2000/svg" width="20" height="20" viewBox="0 0 20 20"><g><g><path fill="#f4d35e" d="M16.72 12.206a1.936 1.936 0 0 0-.52 1.67l.645 3.915c.2 1.22-.73 2.21-1.784 2.21-.278 0-.565-.07-.843-.222l-3.375-1.849a1.757 1.757 0 0 0-1.686 0l-3.375 1.85a1.748 1.748 0 0 1-.843.22c-1.055 0-1.985-.99-1.784-2.209l.645-3.916a1.936 1.936 0 0 0-.52-1.669L.547 9.433c-1.074-1.09-.48-2.992 1.003-3.217l3.774-.57c.59-.09 1.1-.476 1.363-1.033l1.688-3.562A1.782 1.782 0 0 1 10 0c.646 0 1.292.35 1.624 1.051l1.688 3.562c.263.557.773.943 1.363 1.032l3.774.571c1.484.225 2.077 2.126 1.003 3.217z"/></g></g></svg>