<svg xmlns="http://www.w3.org/2000/svg" width="22" height="20" viewBox="0 0 22 20"><g><g><path fill="#222" d="M18.574 10.332l-7.768 7.783-7.77-7.808A5.104 5.104 0 0 1 1.554 6.68c0-1.378.526-2.667 1.482-3.628a5.069 5.069 0 0 1 3.623-1.49c1.358 0 2.647.532 3.628 1.497.305.299.793.296 1.094-.007a5.053 5.053 0 0 1 3.609-1.49c1.372 0 2.653.53 3.603 1.484a5.195 5.195 0 0 1 1.463 3.647c0 1.365-.529 2.66-1.482 3.639zm1.115-8.384A6.588 6.588 0 0 0 14.983 0c-1.538 0-2.99.513-4.162 1.457A6.668 6.668 0 0 0 6.656 0c-1.794 0-3.47.692-4.719 1.948A6.66 6.66 0 0 0 0 6.68a6.66 6.66 0 0 0 1.937 4.732l8.314 8.36a.771.771 0 0 0 1.098 0l8.32-8.34a6.764 6.764 0 0 0 1.931-4.74 6.761 6.761 0 0 0-1.91-4.744z"/></g></g></svg>