<svg xmlns="http://www.w3.org/2000/svg" width="19" height="19" viewBox="0 0 19 19"><g><g><path fill="#b9c3c7" d="M6.323 9.484a3.145 3.145 0 0 1 3.15-3.138c1.74 0 3.151 1.405 3.151 3.138a3.145 3.145 0 0 1-3.15 3.138zm-1.703.005a4.848 4.848 0 0 0 4.854 4.842 4.848 4.848 0 0 0 4.854-4.842 4.847 4.847 0 0 0-4.854-4.842zm8.765-5.029c0 .627.506 1.137 1.13 1.137.624 0 1.13-.51 1.13-1.137s-.506-1.136-1.13-1.136zM5.654 17.174c-.922-.042-1.422-.195-1.756-.325a3.093 3.093 0 0 1-1.794-1.79c-.561-1.438-.375-8.273-.325-9.378.05-1.084.268-2.073 1.032-2.838.946-.943 2.167-1.406 10.482-1.03 1.086.05 2.077.268 2.843 1.03.945.944 1.414 2.175 1.032 10.464-.041.92-.195 1.42-.325 1.753zM5.576.117C4.03.187 2.69.564 1.606 1.642.522 2.726.148 4.072.078 5.602c-.043.955-.297 8.171.44 10.064a4.789 4.789 0 0 0 2.765 2.757c.601.234 1.287.392 2.294.438 8.418.381 11.538.174 12.854-3.195.234-.6.394-1.285.439-2.29.385-8.44-.063-10.268-1.53-11.734z"/></g></g></svg>