<svg xmlns="http://www.w3.org/2000/svg" width="20" height="20" viewBox="0 0 20 20"><g><g><path fill="#f4d35e" d="M16.72 12.206a1.932 1.932 0 0 0-.52 1.67l.644 3.915c.201 1.22-.729 2.21-1.784 2.21-.278 0-.565-.07-.842-.222l-3.376-1.849a1.757 1.757 0 0 0-.842-.217c-.29 0-.579.073-.843.217l-3.375 1.85a1.745 1.745 0 0 1-.843.22c-1.055 0-1.985-.99-1.784-2.209l.645-3.916a1.933 1.933 0 0 0-.52-1.669L.547 9.433C-.526 8.342.068 6.441 1.552 6.216l3.774-.571A1.818 1.818 0 0 0 6.69 4.613l1.687-3.562A1.783 1.783 0 0 1 10 0c.645 0 1.291.35 1.623 1.051l1.688 3.562c.263.557.773.943 1.363 1.032l3.774.571c1.485.225 2.077 2.126 1.003 3.217zm.177-3.683l-2.562-.388c-1.377-.208-2.568-1.108-3.184-2.408L10.005 3.31 8.86 5.727c-.617 1.3-1.807 2.2-3.185 2.408l-2.562.388 1.854 1.881a4.517 4.517 0 0 1 1.217 3.897l-.439 2.656 2.292-1.254a4.11 4.11 0 0 1 1.968-.506 4.11 4.11 0 0 1 1.968.506l2.291 1.254-.437-2.656a4.513 4.513 0 0 1 1.216-3.897z"/></g></g></svg>