<svg xmlns="http://www.w3.org/2000/svg" width="24" height="25" viewBox="0 0 24 25"><g><g><g><path fill="#222" d="M11.668 15.905c6.143 0 9.432 2.444 9.791 7.269H1.878c.359-4.825 3.648-7.27 9.79-7.27zm0-1.825C4.157 14.08.02 17.634.02 24.086c0 .504.408.913.912.913h21.472a.912.912 0 0 0 .913-.913c0-6.452-4.137-10.006-11.649-10.006z"/></g><g><path fill="#222" d="M11.677 10.929c-2.334 0-4.232-2.131-4.232-4.75 0-2.523 1.78-4.354 4.232-4.354 2.413 0 4.233 1.871 4.233 4.354 0 2.619-1.899 4.75-4.233 4.75zM11.672 0C8.222 0 5.62 2.654 5.62 6.174c0 3.622 2.715 6.569 6.052 6.569 3.338 0 6.053-2.947 6.053-6.569 0-3.52-2.602-6.174-6.053-6.174z"/></g></g></g></svg>