<svg xmlns="http://www.w3.org/2000/svg" width="102" height="14" viewBox="0 0 102 14"><g><g><g><path fill="#fff" d="M95.946 6.6H4.054C1.815 6.6 0 6.824 0 7.1s1.815.5 4.054.5h91.892c2.239 0 4.054-.224 4.054-.5s-1.815-.5-4.054-.5z"/><path fill="none" stroke="#fff" stroke-miterlimit="20" stroke-width=".52" d="M95.946 6.6H4.054C1.815 6.6 0 6.824 0 7.1s1.815.5 4.054.5h91.892c2.239 0 4.054-.224 4.054-.5s-1.815-.5-4.054-.5z"/></g><g><path fill="#fff" d="M100.567 6.693l-4.68-5.448a.596.596 0 0 0-.934 0 .86.86 0 0 0 0 1.086l4.214 4.906-4.214 4.905a.86.86 0 0 0 0 1.086c.13.15.298.225.467.225a.614.614 0 0 0 .466-.225l4.68-5.448a.86.86 0 0 0 0-1.087z"/><path fill="none" stroke="#fff" stroke-miterlimit="20" stroke-width=".52" d="M100.567 6.693l-4.68-5.448a.596.596 0 0 0-.934 0 .86.86 0 0 0 0 1.086l4.214 4.906v0l-4.214 4.905a.86.86 0 0 0 0 1.086c.13.15.298.225.467.225a.614.614 0 0 0 .466-.225l4.68-5.448a.86.86 0 0 0 0-1.087z"/></g></g></g></svg>