<svg xmlns="http://www.w3.org/2000/svg" width="49" height="45" viewBox="0 0 49 45"><g><g><path fill="#0093d6" d="M37.175 39.702l.002-1.477c.002-.841.002-.88-.003-2.593a1.93 1.93 0 0 0-1.931-1.915l-.436-.004c-.065 0-.13-.015-.193-.009a1.776 1.776 0 0 0-1.744-1.568h-.82a1.758 1.758 0 0 0-.452.077 1.72 1.72 0 0 0-.318-.317 2.943 2.943 0 0 0 .957-2.512l-1.133-9.87a.842.842 0 0 0-.825-.75h-1.454v-.78c0-2.24-1.91-4.064-4.251-4.064-2.342 0-4.251 1.823-4.251 4.064v.78h-1.606a.844.844 0 0 0-.825.75l-1.134 9.864c-.093.84.175 1.68.736 2.31a3.208 3.208 0 0 0 2.387 1.07H25v1.784a2.81 2.81 0 0 0-3.509.067l-.378.288a.849.849 0 0 0-.22 1.076l2.07 3.729H4.09c-1.34 0-2.431-1.195-2.431-2.623V12.235h45.622v24.844c0 1.428-1.091 2.623-2.432 2.623zm-10-20.935h-5.193v-.781c0-1.327 1.167-2.406 2.597-2.406s2.597 1.08 2.597 2.406zm-7.294 12.339c-.438 0-.855-.186-1.148-.511a1.318 1.318 0 0 1-.327-1.023l1.05-9.146h.867v2.18a.83.83 0 0 0 1.659 0v-2.18h5.184v2.18a.83.83 0 0 0 1.659 0v-2.18h.715l1.05 9.14a1.29 1.29 0 0 1-.327 1.01 1.525 1.525 0 0 1-.995.496l.007-3.26a1.895 1.895 0 0 0-1.933-1.89h-.406a1.905 1.905 0 0 0-1.932 1.899L25 31.106zm8.644 12.235a2.746 2.746 0 0 1-2.401-1.407l-3.431-6.154a1.146 1.146 0 0 1 1.455.22l1.058 1.214a.829.829 0 0 0 1.455-.545c-.002-2.972-.003-6.864.002-8.855a.249.249 0 0 1 .273-.233h.406a.246.246 0 0 1 .274.234c0 .48-.03 6.95-.03 7.015 0 .036-.005.075-.005.11v.34a.83.83 0 0 0 1.659 0v-1.993a.13.13 0 0 1 .122-.107h.827a.098.098 0 0 1 .088.107v2.642a.83.83 0 0 0 1.658 0v-1.993c0-.054.062-.134.116-.134h.819c.054 0 .102.08.102.134v1.993a.83.83 0 0 0 1.66 0v-.298a.316.316 0 0 1 .063-.216.14.14 0 0 1 .113-.037l.435.001a.259.259 0 0 1 .273.258c.004 1.708.029 1.739.027 2.578 0 .434.022 1.085.022 2.292v.1c0 1.52-1.285 2.734-2.8 2.734zM4.09 1.659h40.76c1.34 0 2.431 1.14 2.431 2.57v6.347H1.66V4.228c0-1.428 1.09-2.569 2.431-2.569zm44.85 9.687V4.228C48.94 1.885 47.105 0 44.85 0H4.09C1.835 0 0 1.885 0 4.228v32.86c0 2.344 1.835 4.283 4.09 4.283h19.796l.789 1.388A4.39 4.39 0 0 0 28.525 45h4.24a4.384 4.384 0 0 0 4.347-3.629h7.737c2.256 0 4.091-1.939 4.091-4.283V11.354v-.008z"/></g></g></svg>