<svg xmlns="http://www.w3.org/2000/svg" width="24" height="25" viewBox="0 0 24 25"><g><g><g><g><path fill="#fff" d="M8.347 23.253c-.626 0-1.136-.496-1.136-1.107s.51-1.107 1.136-1.107c.627 0 1.136.496 1.136 1.107 0 .61-.51 1.107-1.136 1.107zm0-3.963c-1.62 0-2.937 1.28-2.937 2.855s1.318 2.856 2.937 2.856c1.62 0 2.938-1.281 2.938-2.856 0-1.574-1.318-2.855-2.938-2.855z"/></g><g><path fill="#fff" d="M19.018 23.253c-.629 0-1.14-.497-1.14-1.108 0-.61.511-1.106 1.14-1.106.628 0 1.139.496 1.139 1.106 0 .611-.511 1.108-1.14 1.108zm0-3.963c-1.62 0-2.938 1.28-2.938 2.855s1.318 2.856 2.938 2.856 2.937-1.281 2.937-2.856c0-1.574-1.318-2.855-2.937-2.855z"/></g><g><path fill="#fff" d="M7.064 18.415H21.06c.497 0 .9-.391.9-.874a.887.887 0 0 0-.9-.874H7.828L5.254 1.317a.887.887 0 0 0-.733-.721L1.074.013a.897.897 0 0 0-1.04.711.876.876 0 0 0 .731 1.011l2.817.477 2.594 15.47a.892.892 0 0 0 .888.733z"/></g></g><g><path fill="#fff" d="M23.829 5.356a.899.899 0 0 0-.72-.356H5v1.73h16.888l-1.832 5.54H6.276V14h14.429a.89.89 0 0 0 .848-.6l2.404-7.27a.845.845 0 0 0-.128-.774z"/></g></g></g></svg>