<svg xmlns="http://www.w3.org/2000/svg" width="12" height="23" viewBox="0 0 12 23"><g><g transform="rotate(270 145 705)"><path fill="#fff" d="M15.11 10.31H-3.27c-.447 0-.81.224-.81.5s.363.5.81.5h18.38c.447 0 .81-.224.81-.5s-.363-.5-.81-.5z"/><path fill="none" stroke="#fff" stroke-miterlimit="20" stroke-width=".52" d="M15.11 10.31H-3.27c-.447 0-.81.224-.81.5s.363.5.81.5h18.38c.447 0 .81-.224.81-.5s-.363-.5-.81-.5z"/></g><g transform="rotate(270 145 705)"><path fill="#fff" d="M16.357 10.384l-3.6-4.191a.459.459 0 0 0-.718 0 .661.661 0 0 0 0 .836l3.241 3.773-3.241 3.773a.661.661 0 0 0 0 .836c.099.115.229.173.359.173.13 0 .26-.058.359-.173l3.6-4.191a.661.661 0 0 0 0-.836z"/><path fill="none" stroke="#fff" stroke-miterlimit="20" stroke-width=".52" d="M16.357 10.384l-3.6-4.191a.459.459 0 0 0-.718 0 .661.661 0 0 0 0 .836l3.241 3.773v0l-3.241 3.773a.661.661 0 0 0 0 .836c.099.115.229.173.359.173.13 0 .26-.058.359-.173l3.6-4.191a.661.661 0 0 0 0-.836z"/></g></g></svg>