<svg xmlns="http://www.w3.org/2000/svg" width="66" height="47" viewBox="0 0 66 47"><g><g><path fill="#0093d6" d="M62.166 34.632c0 .444-.3.788-.744.788h-2.544c-1.73-3.713-6.133-5.318-9.836-3.584a7.373 7.373 0 0 0-3.574 3.584h-2.316V21.658h14.01l4.546 2.007a.844.844 0 0 1 .458.774zm-9.998 8.515a4.544 4.544 0 0 1-4.544-4.559 4.544 4.544 0 1 1 9.088 0c0 2.51-2.03 4.56-4.544 4.56zm-2.643-31.524a3.014 3.014 0 0 1 2.715 1.62l2.857 5.548H43.152v-7.168zm-9.24 12.759H3.857V6.949c0-1.677 1.3-3.068 2.972-3.068h30.455a3.032 3.032 0 0 1 3 3.054zm0 11.038H19.456a7.338 7.338 0 0 0-6.7-4.286 7.3 7.3 0 0 0-6.699 4.286H4.601c-.443 0-.743-.344-.743-.788v-7.383h36.426zm-27.53 7.727a4.542 4.542 0 0 1-4.539-4.559 4.542 4.542 0 0 1 4.54-4.558 4.542 4.542 0 0 1 4.538 4.558c0 2.51-2.041 4.56-4.539 4.56zm50.072-22.091l-4.358-1.893-3.7-7.225a5.825 5.825 0 0 0-5.244-3.197h-6.373V6.935c0-3.269-2.6-5.935-5.858-5.935H6.83C3.573 1 1 3.68 1 6.935v27.668a3.598 3.598 0 0 0 3.544 3.656H5.36c0 .143-.015.2-.015.286-.014 4.1 3.287 7.44 7.373 7.455 4.087.014 7.416-3.297 7.43-7.397v-.072c0-.1 0-.143-.014-.287h24.62v.287c-.015 4.1 3.286 7.44 7.372 7.455 4.087.014 7.416-3.298 7.43-7.398v-.071-.287H61.4a3.61 3.61 0 0 0 3.6-3.613V24.382c.029-1.405-.828-2.739-2.172-3.326z"/><path fill="none" stroke="#fff" stroke-miterlimit="20" d="M62.166 34.632c0 .444-.3.788-.744.788h-2.544c-1.73-3.713-6.133-5.318-9.836-3.584a7.373 7.373 0 0 0-3.574 3.584h-2.316V21.658h14.01l4.546 2.007a.844.844 0 0 1 .458.774zm-9.998 8.515a4.544 4.544 0 0 1-4.544-4.559 4.544 4.544 0 1 1 9.088 0c0 2.51-2.03 4.56-4.544 4.56zm-2.643-31.524a3.014 3.014 0 0 1 2.715 1.62l2.857 5.548H43.152v-7.168zm-9.24 12.759H3.857V6.949c0-1.677 1.3-3.068 2.972-3.068h30.455a3.032 3.032 0 0 1 3 3.054zm0 11.038H19.456a7.338 7.338 0 0 0-6.7-4.286 7.3 7.3 0 0 0-6.699 4.286H4.601c-.443 0-.743-.344-.743-.788v-7.383h36.426zm-27.53 7.727a4.542 4.542 0 0 1-4.539-4.559 4.542 4.542 0 0 1 4.54-4.558 4.542 4.542 0 0 1 4.538 4.558c0 2.51-2.041 4.56-4.539 4.56zm50.072-22.091l-4.358-1.893-3.7-7.225a5.825 5.825 0 0 0-5.244-3.197h-6.373V6.935c0-3.269-2.6-5.935-5.858-5.935H6.83C3.573 1 1 3.68 1 6.935v27.668a3.598 3.598 0 0 0 3.544 3.656H5.36c0 .143-.015.2-.015.286-.014 4.1 3.287 7.44 7.373 7.455 4.087.014 7.416-3.297 7.43-7.397v-.072c0-.1 0-.143-.014-.287h24.62v.287c-.015 4.1 3.286 7.44 7.372 7.455 4.087.014 7.416-3.298 7.43-7.398v-.071-.287H61.4a3.61 3.61 0 0 0 3.6-3.613V24.382c.029-1.405-.828-2.739-2.172-3.326z"/></g></g></svg>